<svg width="29" height="29" viewBox="0 0 29 29" fill="none" xmlns="http://www.w3.org/2000/svg">
<path d="M25.1618 25.7951L19.9281 20.5521M12.9118 9.46175V13.5451M12.9118 13.5451V17.6284M12.9118 13.5451H16.9951M12.9118 13.5451H8.82845M22.8284 13.5451C22.8284 16.1751 21.7837 18.6975 19.9239 20.5572C18.0642 22.417 15.5418 23.4618 12.9118 23.4618C10.2817 23.4618 7.75938 22.417 5.89964 20.5572C4.03991 18.6975 2.99512 16.1751 2.99512 13.5451C2.99512 10.915 4.03991 8.39268 5.89964 6.53294C7.75938 4.67321 10.2817 3.62842 12.9118 3.62842C15.5418 3.62842 18.0642 4.67321 19.9239 6.53294C21.7837 8.39268 22.8284 10.915 22.8284 13.5451Z" stroke="#343538" stroke-width="2" stroke-linecap="round"/>
</svg>
